<?xml version="1.0" encoding="UTF-8"?>
<svg version="1.1" xmlns="http://www.w3.org/2000/svg" width="48" height="48">
<path d="M0 0 C5.82485779 3.51996782 10.54466582 8.98962934 12.5625 15.5 C13.36764105 23.33608208 13.68710392 31.11922577 8.5625 37.5 C3.75801361 42.54521222 -0.59927055 46.10562995 -7.70703125 46.8359375 C-16.22326573 46.92983204 -22.11345494 46.6177288 -28.40234375 40.62890625 C-34.7841668 33.72505269 -35.91792252 28.29832071 -35.7421875 18.9453125 C-35.04689797 11.08319245 -31.38995981 6.95041296 -25.53515625 1.9453125 C-18.47077988 -2.92213491 -7.84396301 -3.47595223 0 0 Z " fill="#1877F1" transform="translate(35.4375,1.5)"/>
<path d="M0 0 C0 1.98 0 3.96 0 6 C-1.98 6.33 -3.96 6.66 -6 7 C-6.33 9.31 -6.66 11.62 -7 14 C-5.02 14 -3.04 14 -1 14 C-1 16.31 -1 18.62 -1 21 C-2.98 21 -4.96 21 -7 21 C-7 26.61 -7 32.22 -7 38 C-9.64 38 -12.28 38 -15 38 C-15 32.39 -15 26.78 -15 21 C-16.98 21 -18.96 21 -21 21 C-21 18.69 -21 16.38 -21 14 C-19.02 14 -17.04 14 -15 14 C-15.04640625 13.40832031 -15.0928125 12.81664062 -15.140625 12.20703125 C-15.31858215 8.31104085 -15.24056106 5.56130914 -13.6875 1.9375 C-9.44949976 -1.1178025 -5.05554416 -0.3922405 0 0 Z " fill="#F3F8FE" transform="translate(35,10)"/>
</svg>
