<?xml version="1.0" encoding="UTF-8"?>
<svg version="1.1" xmlns="http://www.w3.org/2000/svg" width="49" height="48">
<path d="M0 0 C0.76217331 -0.00807175 1.52434662 -0.01614349 2.30961609 -0.02445984 C3.92440518 -0.0382985 5.53922349 -0.04902164 7.15405273 -0.05688477 C9.61694208 -0.07408067 12.07848281 -0.11796382 14.54101562 -0.16210938 C16.11066722 -0.1722381 17.68033022 -0.18075364 19.25 -0.1875 C19.98350174 -0.20500809 20.71700348 -0.22251617 21.47273254 -0.24055481 C25.00209266 -0.22567445 27.15008535 0.13462796 30.20385742 1.95239258 C35.59502161 7.7644214 34.66398937 14.59310617 34.63989258 22.10327148 C34.63673313 24.16639079 34.6602181 26.22807328 34.68554688 28.29101562 C34.68619141 29.60263672 34.68683594 30.91425781 34.6875 32.265625 C34.69048096 33.45921631 34.69346191 34.65280762 34.6965332 35.88256836 C34.18542289 40.48926429 32.76649459 43.67031959 29.62646484 47.08398438 C26.31105614 48.74625928 23.11848525 48.70602427 19.48828125 48.70703125 C18.35282364 48.71845154 18.35282364 48.71845154 17.19442749 48.73010254 C15.59579763 48.7408881 13.9970974 48.74376289 12.3984375 48.73925781 C9.96363511 48.738287 7.53200254 48.77988626 5.09765625 48.82421875 C3.54037112 48.82942753 1.98307509 48.83211391 0.42578125 48.83203125 C-0.2962851 48.84842651 -1.01835144 48.86482178 -1.76229858 48.88171387 C-7.49162785 48.80415097 -9.80477155 47.15735506 -13.67578125 43.23828125 C-15.95974453 38.67035469 -14.98735247 31.96361923 -15.02587891 26.890625 C-15.04240778 25.29607517 -15.06965776 23.7015985 -15.10791016 22.10742188 C-15.16292232 19.8016947 -15.18458942 17.49770295 -15.19921875 15.19140625 C-15.22188812 14.48493958 -15.2445575 13.7784729 -15.26791382 13.05059814 C-15.25151857 9.17448327 -14.66856626 6.76859993 -12.26806641 3.80371094 C-8.27516541 -0.14782454 -5.37265839 0.05366257 0 0 Z " fill="#E95275" transform="translate(14.67578125,-0.23828125)"/>
<path d="M0 0 C0.76217331 -0.00807175 1.52434662 -0.01614349 2.30961609 -0.02445984 C3.92440518 -0.0382985 5.53922349 -0.04902164 7.15405273 -0.05688477 C9.61694208 -0.07408067 12.07848281 -0.11796382 14.54101562 -0.16210938 C16.11066722 -0.1722381 17.68033022 -0.18075364 19.25 -0.1875 C19.98350174 -0.20500809 20.71700348 -0.22251617 21.47273254 -0.24055481 C25.00209266 -0.22567445 27.15008535 0.13462796 30.20385742 1.95239258 C35.59502161 7.7644214 34.66398937 14.59310617 34.63989258 22.10327148 C34.63673313 24.16639079 34.6602181 26.22807328 34.68554688 28.29101562 C34.68619141 29.60263672 34.68683594 30.91425781 34.6875 32.265625 C34.69048096 33.45921631 34.69346191 34.65280762 34.6965332 35.88256836 C34.18542289 40.48926429 32.76649459 43.67031959 29.62646484 47.08398438 C26.31105614 48.74625928 23.11848525 48.70602427 19.48828125 48.70703125 C18.35282364 48.71845154 18.35282364 48.71845154 17.19442749 48.73010254 C15.59579763 48.7408881 13.9970974 48.74376289 12.3984375 48.73925781 C9.96363511 48.738287 7.53200254 48.77988626 5.09765625 48.82421875 C3.54037112 48.82942753 1.98307509 48.83211391 0.42578125 48.83203125 C-0.2962851 48.84842651 -1.01835144 48.86482178 -1.76229858 48.88171387 C-7.49162785 48.80415097 -9.80477155 47.15735506 -13.67578125 43.23828125 C-15.95974453 38.67035469 -14.98735247 31.96361923 -15.02587891 26.890625 C-15.04240778 25.29607517 -15.06965776 23.7015985 -15.10791016 22.10742188 C-15.16292232 19.8016947 -15.18458942 17.49770295 -15.19921875 15.19140625 C-15.22188812 14.48493958 -15.2445575 13.7784729 -15.26791382 13.05059814 C-15.25151857 9.17448327 -14.66856626 6.76859993 -12.26806641 3.80371094 C-8.27516541 -0.14782454 -5.37265839 0.05366257 0 0 Z M-6.67578125 8.23828125 C-9.71764921 13.12849242 -9.0834257 18.53361147 -9.11328125 24.11328125 C-9.14615234 25.18964844 -9.17902344 26.26601563 -9.21289062 27.375 C-9.33582237 34.1344756 -9.33582237 34.1344756 -6.2734375 39.93359375 C-1.4641477 44.20048245 2.87653209 43.49118811 9.07421875 43.55078125 C10.06421875 43.57978516 11.05421875 43.60878906 12.07421875 43.63867188 C17.97450393 43.68994441 21.77891223 43.42436193 26.32421875 39.23828125 C29.23080117 34.5541661 28.65406244 29.64610521 28.63671875 24.30078125 C28.65283203 23.31142578 28.66894531 22.32207031 28.68554688 21.30273438 C28.80761884 14.19218284 28.80761884 14.19218284 25.32421875 8.23828125 C20.10923776 4.54668729 14.90468806 4.78654742 8.76171875 4.86328125 C7.82908203 4.85167969 6.89644531 4.84007812 5.93554688 4.828125 C-0.89478567 4.84308416 -0.89478567 4.84308416 -6.67578125 8.23828125 Z " fill="#C73D99" transform="translate(14.67578125,-0.23828125)"/>
<path d="M0 0 C0.92876953 -0.01160156 1.85753906 -0.02320313 2.81445312 -0.03515625 C8.08896936 -0.01263163 12.11650936 0.22776088 16.5625 3.375 C20.7336034 7.88049566 20.00562995 13.59152385 19.9375 19.375 C19.94910156 20.35984375 19.96070313 21.3446875 19.97265625 22.359375 C19.93517531 31.60467301 19.93517531 31.60467301 16.5625 35.375 C11.96910064 39.45802166 6.44350861 38.8903018 0.625 38.875 C-0.35146484 38.90335938 -1.32792969 38.93171875 -2.33398438 38.9609375 C-6.96104666 38.97348547 -10.37672232 38.96365907 -14.06640625 35.96875 C-18.63783779 30.9680407 -17.62122043 26.0084151 -17.625 19.5 C-17.63724609 18.39785156 -17.64949219 17.29570312 -17.66210938 16.16015625 C-17.66404297 15.09925781 -17.66597656 14.03835937 -17.66796875 12.9453125 C-17.67207764 11.97352051 -17.67618652 11.00172852 -17.68041992 10.00048828 C-17.32991418 6.2122081 -16.31637096 4.14422963 -13.46484375 1.6484375 C-8.98944086 -0.23411907 -4.80492342 -0.05977099 0 0 Z M-13.0859375 5.734375 C-15.26613413 9.99394991 -14.93386065 14.16748436 -14.8125 18.875 C-14.81121094 19.82503906 -14.80992188 20.77507813 -14.80859375 21.75390625 C-14.79343941 27.85324819 -14.79343941 27.85324819 -12.4375 33.375 C-8.57513565 35.30618218 -3.87408819 34.69034465 0.375 34.75 C1.37337891 34.78738281 2.37175781 34.82476562 3.40039062 34.86328125 C7.95315436 34.91787802 10.76765156 34.84468317 14.7421875 32.49609375 C17.37009547 27.99030305 17.10985762 24.17516976 16.875 19.0625 C16.85244141 18.13115234 16.82988281 17.19980469 16.80664062 16.24023438 C16.74792078 13.9501604 16.66586858 11.66342125 16.5625 9.375 C15.5725 9.045 14.5825 8.715 13.5625 8.375 C13.2325 9.035 12.9025 9.695 12.5625 10.375 C10.5 11 10.5 11 8.5625 11.375 C8.5625 10.055 8.5625 8.735 8.5625 7.375 C9.2225 7.045 9.8825 6.715 10.5625 6.375 C10.5625 5.715 10.5625 5.055 10.5625 4.375 C7.14612047 4.25867487 3.73025103 4.18771103 0.3125 4.125 C-0.65558594 4.09148438 -1.62367187 4.05796875 -2.62109375 4.0234375 C-8.05437913 3.93952543 -8.05437913 3.93952543 -13.0859375 5.734375 Z " fill="#FAF0F3" transform="translate(23.4375,4.625)"/>
<path d="M0 0 C0.33 0 0.66 0 1 0 C1.0093457 0.64026123 1.01869141 1.28052246 1.02832031 1.94018555 C1.08218847 4.85672375 1.16580199 7.77168625 1.25 10.6875 C1.26417969 11.69490234 1.27835937 12.70230469 1.29296875 13.74023438 C1.47827729 19.74606329 1.47827729 19.74606329 3.921875 25.14453125 C6.97629706 27.87169381 8.78300328 28.14747604 12.7890625 28.31640625 C14.20058594 28.37924805 14.20058594 28.37924805 15.640625 28.44335938 C16.62546875 28.48267578 17.6103125 28.52199219 18.625 28.5625 C19.61757813 28.60568359 20.61015625 28.64886719 21.6328125 28.69335938 C24.08839838 28.79961069 26.54408703 28.90164964 29 29 C29 30.65 29 32.3 29 34 C24.62535204 34.14564235 20.2513304 34.23419143 15.875 34.3125 C14.6375 34.35439453 13.4 34.39628906 12.125 34.43945312 C1.84743366 34.57759246 1.84743366 34.57759246 -1.8046875 31.60546875 C-4.78373566 28.06983685 -5.12365536 26.51603337 -5.09765625 21.9921875 C-5.09443359 21.00605469 -5.09121094 20.01992188 -5.08789062 19.00390625 C-5.07951172 17.97136719 -5.07113281 16.93882813 -5.0625 15.875 C-5.05798828 14.83472656 -5.05347656 13.79445313 -5.04882812 12.72265625 C-5.03701952 10.14838038 -5.02055075 7.57421854 -5 5 C-3.35 4.67 -1.7 4.34 0 4 C0 2.68 0 1.36 0 0 Z " fill="#FFC953" transform="translate(5,14)"/>
<path d="M0 0 C2.46111244 0.62751691 3.50724798 1.32353129 5.22265625 3.17578125 C7.35084509 6.88294891 8.02833527 8.38352196 7.16015625 12.55078125 C4.70383063 16.829542 4.70383063 16.829542 2.16015625 18.55078125 C-1.01358831 19.36000003 -3.65862886 19.30437827 -6.83984375 18.55078125 C-9.89051797 16.55850421 -11.43411044 15.21395251 -12.3125 11.61328125 C-12.59937305 7.72946144 -12.04751037 5.87232956 -9.90234375 2.55078125 C-6.34443401 0.22724836 -4.18718848 -0.24466043 0 0 Z " fill="#FDF1F3" transform="translate(26.83984375,14.44921875)"/>
<path d="M0 0 C0.98613281 0.00322266 1.97226563 0.00644531 2.98828125 0.00976562 C4.02082031 0.01814453 5.05335937 0.02652344 6.1171875 0.03515625 C7.67759766 0.04192383 7.67759766 0.04192383 9.26953125 0.04882812 C11.84380712 0.06063673 14.41796896 0.0771055 16.9921875 0.09765625 C13.79703554 4.91720201 13.79703554 4.91720201 10.15234375 5.734375 C9.13011719 5.75113281 8.10789062 5.76789062 7.0546875 5.78515625 C2.9311397 5.88420481 -0.3878818 5.99024904 -4.0078125 8.09765625 C-5.25174126 10.4764306 -5.25174126 10.4764306 -5.8203125 13.22265625 C-6.05363281 14.13273438 -6.28695313 15.0428125 -6.52734375 15.98046875 C-6.68589844 16.67914062 -6.84445313 17.3778125 -7.0078125 18.09765625 C-8.6578125 18.42765625 -10.3078125 18.75765625 -12.0078125 19.09765625 C-12.86886458 7.27254099 -12.86886458 7.27254099 -9.6328125 3.41015625 C-6.10086005 0.29867433 -4.59249708 -0.02639366 0 0 Z " fill="#5458CA" transform="translate(12.0078125,-0.09765625)"/>
<path d="M0 0 C-0.0825 1.2375 -0.165 2.475 -0.25 3.75 C-0.22386691 6.70303882 -0.10003551 7.83037457 1.4375 10.4375 C5.13096337 12.68961181 8.73915028 12.8179124 13 13 C13.33 14.98 13.66 16.96 14 19 C11.22890693 19.05392397 8.45886182 19.09363455 5.6875 19.125 C4.90181641 19.14175781 4.11613281 19.15851562 3.30664062 19.17578125 C2.54931641 19.18222656 1.79199219 19.18867187 1.01171875 19.1953125 C0.31522217 19.20578613 -0.38127441 19.21625977 -1.09887695 19.22705078 C-3 19 -3 19 -6 17 C-7.18681726 13.43954823 -7.09689832 10.56191663 -7.0625 6.8125 C-7.05347656 5.54019531 -7.04445313 4.26789062 -7.03515625 2.95703125 C-7.02355469 1.98121094 -7.01195312 1.00539063 -7 0 C-3.86650268 -1.04449911 -3.01031744 -0.93423645 0 0 Z " fill="#FF7F48" transform="translate(16,20)"/>
<path d="M0 0 C3.0625 0.3125 3.0625 0.3125 4.9375 1.4375 C6.59104531 4.19340884 6.45615568 6.16325452 6.0625 9.3125 C4.9375 11.1875 4.9375 11.1875 3.0625 12.3125 C0.0625 12.75 0.0625 12.75 -2.9375 12.3125 C-4.875 10.6875 -4.875 10.6875 -5.9375 8.3125 C-5.64908355 3.50555913 -5.26034464 0.55961113 0 0 Z " fill="#ED4D64" transform="translate(23.9375,17.6875)"/>
<path d="M0 0 C1.40668945 0.00966797 1.40668945 0.00966797 2.84179688 0.01953125 C4.30649414 0.04466797 4.30649414 0.04466797 5.80078125 0.0703125 C6.78884766 0.07933594 7.77691406 0.08835937 8.79492188 0.09765625 C11.2346189 0.1212282 13.67382822 0.15413228 16.11328125 0.1953125 C16.11328125 0.8553125 16.11328125 1.5153125 16.11328125 2.1953125 C13.49306673 4.81552702 11.7575198 4.74641582 8.11328125 5.2578125 C6.95441406 5.42152344 5.79554687 5.58523437 4.6015625 5.75390625 C0.11225892 6.32198162 -4.37824858 6.80858142 -8.88671875 7.1953125 C-8.57421875 4.8203125 -8.57421875 4.8203125 -7.88671875 2.1953125 C-4.63281887 0.02604591 -3.75275918 -0.04548799 0 0 Z " fill="#A934B3" transform="translate(17.88671875,8.8046875)"/>
<path d="M0 0 C0 5.61 0 11.22 0 17 C-0.99 17.33 -1.98 17.66 -3 18 C-3.33 18.99 -3.66 19.98 -4 21 C-4.33 21 -4.66 21 -5 21 C-5 14.4 -5 7.8 -5 1 C-3 0 -3 0 0 0 Z " fill="#F8504B" transform="translate(5,18)"/>
<path d="M0 0 C0 0.99 0 1.98 0 3 C1.32 3.33 2.64 3.66 4 4 C3.67 5.32 3.34 6.64 3 8 C2.34 8 1.68 8 1 8 C0.484375 7.175 -0.03125 6.35 -0.5625 5.5 C-3.28911908 2.70346761 -3.78972753 2.59747842 -7.5 2.5 C-11.34130535 2.70645452 -13.03758137 3.53131781 -16 6 C-19.75 6.6875 -19.75 6.6875 -23 7 C-23 5.68 -23 4.36 -23 3 C-15.21726112 0.95062675 -8.06510168 -0.49155247 0 0 Z " fill="#CD51A4" transform="translate(32,13)"/>
<path d="M0 0 C-0.99 0.33 -1.98 0.66 -3 1 C-4.02700444 3.32891096 -4.02700444 3.32891096 -4.6875 6.0625 C-4.93886719 6.98160156 -5.19023438 7.90070312 -5.44921875 8.84765625 C-5.63097656 9.55792969 -5.81273437 10.26820312 -6 11 C-7.65 11.33 -9.3 11.66 -11 12 C-11 8.04 -11 4.08 -11 0 C-3.375 -1.125 -3.375 -1.125 0 0 Z " fill="#6E50C7" transform="translate(11,7)"/>
<path d="M0 0 C1.61648437 0.04060547 1.61648437 0.04060547 3.265625 0.08203125 C4.08546875 0.11683594 4.9053125 0.15164063 5.75 0.1875 C4.265625 2.63671875 4.265625 2.63671875 1.75 5.1875 C-1.18208267 5.72033832 -3.56981221 5.97670345 -6.5 6 C-7.24507812 6.02513672 -7.99015625 6.05027344 -8.7578125 6.07617188 C-10.58797793 6.13483102 -12.41904453 6.1640808 -14.25 6.1875 C-12.91666667 5.1875 -11.58333333 4.1875 -10.25 3.1875 C-9.63640625 2.63449219 -9.0228125 2.08148438 -8.390625 1.51171875 C-5.48753469 -0.28417106 -3.38155169 -0.11026799 0 0 Z " fill="#6B48CA" transform="translate(23.25,-0.1875)"/>
<path d="M0 0 C-0.33 2.97 -0.66 5.94 -1 9 C-2.65614657 9.38218767 -4.32457024 9.71395102 -6 10 C-7 9 -7 9 -7.09765625 6.93359375 C-7.08605469 6.10988281 -7.07445312 5.28617188 -7.0625 4.4375 C-7.05347656 3.61121094 -7.04445313 2.78492188 -7.03515625 1.93359375 C-7.02355469 1.29550781 -7.01195312 0.65742188 -7 0 C-4 -1 -4 -1 0 0 Z " fill="#F65453" transform="translate(16,20)"/>
<path d="M0 0 C4.29 0 8.58 0 13 0 C13 1.65 13 3.3 13 5 C9.04 5 5.08 5 1 5 C0.67 3.35 0.34 1.7 0 0 Z " fill="#FF9348" transform="translate(21,43)"/>
<path d="M0 0 C0.33 0.66 0.66 1.32 1 2 C-6.65199697 3.23535374 -14.27577951 4.33742578 -22 5 C-22 4.01 -22 3.02 -22 2 C-14.58851545 0.71702277 -7.52719602 -0.25515919 0 0 Z " fill="#B73AA4" transform="translate(31,11)"/>
<path d="M0 0 C0.33 0 0.66 0 1 0 C1.14518182 4.0829596 1.23403347 8.16525641 1.3125 12.25 C1.35439453 13.40886719 1.39628906 14.56773438 1.43945312 15.76171875 C1.56390832 24.37401805 1.56390832 24.37401805 -1.51953125 27.796875 C-2.33808594 28.19390625 -3.15664063 28.5909375 -4 29 C-4.75 27.25 -4.75 27.25 -5 25 C-4.360625 24.5153125 -3.72125 24.030625 -3.0625 23.53125 C0.19596074 19.53223 -0.32339871 15.26113042 -0.25 10.25 C-0.22035156 9.26644531 -0.19070312 8.28289063 -0.16015625 7.26953125 C-0.08957589 4.84627224 -0.03682299 2.42396846 0 0 Z " fill="#F88D6E" transform="translate(5,14)"/>
<path d="M0 0 C0.33 3.3 0.66 6.6 1 10 C-3 9 -3 9 -5 6 C-4.75 3.375 -4.75 3.375 -4 1 C-2 0 -2 0 0 0 Z " fill="#F24D56" transform="translate(23,20)"/>
<path d="M0 0 C2.97 0 5.94 0 9 0 C9.33 1.98 9.66 3.96 10 6 C6.05879291 5.43697042 3.2491277 4.3208055 0 2 C0 1.34 0 0.68 0 0 Z " fill="#FF8059" transform="translate(20,33)"/>
<path d="M0 0 C0.80824219 0.28746094 1.61648437 0.57492188 2.44921875 0.87109375 C3.06410156 1.09925781 3.67898437 1.32742187 4.3125 1.5625 C4.3125 2.2225 4.3125 2.8825 4.3125 3.5625 C2.8754191 3.61672947 1.43774538 3.65539723 0 3.6875 C-0.80050781 3.71070313 -1.60101563 3.73390625 -2.42578125 3.7578125 C-4.6875 3.5625 -4.6875 3.5625 -7.6875 1.5625 C-7.6875 0.9025 -7.6875 0.2425 -7.6875 -0.4375 C-4.20878379 -1.59707207 -3.34530355 -1.21206651 0 0 Z " fill="#FF944E" transform="translate(17.6875,35.4375)"/>
<path d="M0 0 C1.5625 1.25 1.5625 1.25 3 3 C2.9375 5 2.9375 5 2 7 C-0.0625 8.75 -0.0625 8.75 -2 10 C-2.66 8.68 -3.32 7.36 -4 6 C-3.525625 5.566875 -3.05125 5.13375 -2.5625 4.6875 C-0.76313043 2.97690387 -0.76313043 2.97690387 0 0 Z " fill="#FFA551" transform="translate(6,36)"/>
<path d="M0 0 C3.875 1.75 3.875 1.75 5 4 C4.34 4 3.68 4 3 4 C2.67 4.99 2.34 5.98 2 7 C0.68 7 -0.64 7 -2 7 C-2.33 5.35 -2.66 3.7 -3 2 C-2.01 2 -1.02 2 0 2 C0 1.34 0 0.68 0 0 Z " fill="#DE99D6" transform="translate(34,9)"/>
<path d="M0 0 C1.32 1.65 2.64 3.3 4 5 C0.18510326 6.46726798 -2.29011622 5.43336419 -6 4 C-5.67 3.01 -5.34 2.02 -5 1 C-3.35 0.67 -1.7 0.34 0 0 Z " fill="#FF6C44" transform="translate(15,28)"/>
<path d="M0 0 C2.97 0 5.94 0 9 0 C8.01 1.485 8.01 1.485 7 3 C3.375 3.6875 3.375 3.6875 0 4 C0 2.68 0 1.36 0 0 Z " fill="#D24082" transform="translate(9,16)"/>
<path d="M0 0 C-0.33 1.32 -0.66 2.64 -1 4 C-2.65 4.33 -4.3 4.66 -6 5 C-6 3.35 -6 1.7 -6 0 C-3.50907189 -1.24546405 -2.58919267 -0.7767578 0 0 Z " fill="#AA3AA5" transform="translate(6,14)"/>
<path d="M0 0 C1.22589844 0.01353516 1.22589844 0.01353516 2.4765625 0.02734375 C3.41628906 0.04474609 3.41628906 0.04474609 4.375 0.0625 C1.52021674 1.96568884 -0.04441308 2.5244099 -3.3125 3.1875 C-4.12074219 3.35507813 -4.92898437 3.52265625 -5.76171875 3.6953125 C-6.37660156 3.81648437 -6.99148438 3.93765625 -7.625 4.0625 C-7.295 3.0725 -6.965 2.0825 -6.625 1.0625 C-4.21954362 -0.14022819 -2.67503047 -0.03821472 0 0 Z " fill="#9C43B9" transform="translate(17.625,8.9375)"/>
<path d="M0 0 C0 1.65 0 3.3 0 5 C-0.99 5.33 -1.98 5.66 -3 6 C-3.33 6.99 -3.66 7.98 -4 9 C-4.33 9 -4.66 9 -5 9 C-5.25 6.1875 -5.25 6.1875 -5 3 C-1.9 0 -1.9 0 0 0 Z " fill="#FF6941" transform="translate(5,30)"/>
<path d="M0 0 C-0.25 2.375 -0.25 2.375 -1 5 C-3.0625 6.3125 -3.0625 6.3125 -5 7 C-5 5.02 -5 3.04 -5 1 C-3 0 -3 0 0 0 Z " fill="#DA4376" transform="translate(5,18)"/>
<path d="M0 0 C1.98 0 3.96 0 6 0 C6.33 1.65 6.66 3.3 7 5 C5.68 5 4.36 5 3 5 C2.87625 4.360625 2.7525 3.72125 2.625 3.0625 C2.315625 2.0415625 2.315625 2.0415625 2 1 C1.34 0.67 0.68 0.34 0 0 Z " fill="#FFBB4F" transform="translate(15,43)"/>
<path d="M0 0 C0.99 0.33 1.98 0.66 3 1 C-2.14285714 6.57142857 -2.14285714 6.57142857 -6 7 C-4.61990379 3.66476748 -3.15049348 1.81392049 0 0 Z " fill="#4564C9" transform="translate(7,0)"/>
<path d="M0 0 C1.65 0 3.3 0 5 0 C5 1.65 5 3.3 5 5 C3.68 5 2.36 5 1 5 C0.67 3.35 0.34 1.7 0 0 Z " fill="#FF6741" transform="translate(29,43)"/>
<path d="M0 0 C2.31 0 4.62 0 7 0 C6.67 0.99 6.34 1.98 6 3 C4.02 3.33 2.04 3.66 0 4 C0 2.68 0 1.36 0 0 Z " fill="#8644BE" transform="translate(0,10)"/>
<path d="M0 0 C0.99 0.33 1.98 0.66 3 1 C4.1875 4.5625 4.1875 4.5625 5 8 C3.0625 7.375 3.0625 7.375 1 6 C0.25 2.875 0.25 2.875 0 0 Z " fill="#F85B57" transform="translate(18,22)"/>
<path d="M0 0 C2.31 0.33 4.62 0.66 7 1 C6.67 2.65 6.34 4.3 6 6 C5.34 6 4.68 6 4 6 C2.61061923 4.03852126 1.2739589 2.03833424 0 0 Z " fill="#DC5094" transform="translate(29,15)"/>
<path d="M0 0 C0.99 0.33 1.98 0.66 3 1 C-0.32307692 4.93846154 -0.32307692 4.93846154 -3.75 5.25 C-4.4925 5.1675 -5.235 5.085 -6 5 C-5.195625 4.360625 -4.39125 3.72125 -3.5625 3.0625 C-1.7249496 1.59396498 -1.7249496 1.59396498 0 0 Z " fill="#7840C9" transform="translate(26,0)"/>
<path d="M0 0 C0.99 0.33 1.98 0.66 3 1 C1.92892883 1.86949317 0.84254056 2.72014205 -0.25 3.5625 C-0.85328125 4.03816406 -1.4565625 4.51382812 -2.078125 5.00390625 C-4 6 -4 6 -6.234375 5.65234375 C-6.81703125 5.43707031 -7.3996875 5.22179687 -8 5 C-6.20963542 3.99088542 -4.41927083 2.98177083 -2.62890625 1.97265625 C-1.02121854 1.1027487 -1.02121854 1.1027487 0 0 Z " fill="#604FCA" transform="translate(17,0)"/>
<path d="M0 0 C0.33 1.98 0.66 3.96 1 6 C0.34 6 -0.32 6 -1 6 C-2.38232443 4.37373596 -3.71937515 2.7074998 -5 1 C-2 0 -2 0 0 0 Z " fill="#FE5E40" transform="translate(29,33)"/>
</svg>
