<?xml version="1.0" encoding="UTF-8"?>
<svg version="1.1" xmlns="http://www.w3.org/2000/svg" width="48" height="48">
<path d="M0 0 C1.14113754 -0.00642769 1.14113754 -0.00642769 2.30532837 -0.01298523 C3.91415411 -0.01872522 5.52300581 -0.01923121 7.13183594 -0.01489258 C9.58574083 -0.01173908 12.03843223 -0.03517169 14.4921875 -0.06054688 C16.05729015 -0.06282066 17.62239603 -0.063523 19.1875 -0.0625 C20.28304703 -0.07631462 20.28304703 -0.07631462 21.40072632 -0.09040833 C25.85682509 -0.05022085 28.69931574 0.5342416 32.2265625 3.30078125 C34.68277609 6.98510164 34.53263523 9.81033961 34.52734375 14.07421875 C34.53162888 14.83497711 34.535914 15.59573547 34.54032898 16.37954712 C34.54606897 17.98837286 34.54657496 19.59722456 34.54223633 21.20605469 C34.53908283 23.65995958 34.56251544 26.11265098 34.58789062 28.56640625 C34.59016441 30.1315089 34.59086675 31.69661478 34.58984375 33.26171875 C34.5990535 33.99208344 34.60826324 34.72244812 34.61775208 35.47494507 C34.5775646 39.93104384 33.99310215 42.77353449 31.2265625 46.30078125 C27.54224211 48.75699484 24.71700414 48.60685398 20.453125 48.6015625 C19.69236664 48.60584763 18.93160828 48.61013275 18.14779663 48.61454773 C16.53897089 48.62028772 14.93011919 48.62079371 13.32128906 48.61645508 C10.86738417 48.61330158 8.41469277 48.63673419 5.9609375 48.66210938 C4.39583485 48.66438316 2.83072897 48.6650855 1.265625 48.6640625 C0.53526031 48.67327225 -0.19510437 48.68248199 -0.94760132 48.69197083 C-5.40370009 48.65178335 -8.24619074 48.0673209 -11.7734375 45.30078125 C-14.22965109 41.61646086 -14.07951023 38.79122289 -14.07421875 34.52734375 C-14.07850388 33.76658539 -14.082789 33.00582703 -14.08720398 32.22201538 C-14.09294397 30.61318964 -14.09344996 29.00433794 -14.08911133 27.39550781 C-14.08595783 24.94160292 -14.10939044 22.48891152 -14.13476562 20.03515625 C-14.13703941 18.4700536 -14.13774175 16.90494772 -14.13671875 15.33984375 C-14.1459285 14.60947906 -14.15513824 13.87911438 -14.16462708 13.12661743 C-14.1244396 8.67051866 -13.53997715 5.82802801 -10.7734375 2.30078125 C-7.08911711 -0.15543234 -4.26387914 -0.00529148 0 0 Z " fill="#0C67C2" transform="translate(13.7734375,-0.30078125)"/>
<path d="M0 0 C3.33333333 0 6.66666667 0 10 0 C11.98867857 -0.15783163 13.97736858 -0.31595681 15.96484375 -0.48828125 C18 0 18 0 20.23828125 1.9375 C22.66507189 6.15613383 22.44572868 9.54349547 22.25 14.3125 C22.23195313 15.14845703 22.21390625 15.98441406 22.1953125 16.84570312 C22.14841126 18.89763228 22.07667411 20.94896756 22 23 C19.69 23 17.38 23 15 23 C14.67 18.05 14.34 13.1 14 8 C12.35 7.67 10.7 7.34 9 7 C7.00383446 8.99616554 7.59016573 12.81701963 7.4375 15.5625 C7.39431641 16.27341797 7.35113281 16.98433594 7.30664062 17.71679688 C7.20028223 19.47761912 7.09961154 21.2387832 7 23 C4.69 23 2.38 23 0 23 C0 15.41 0 7.82 0 0 Z " fill="#F5F8FC" transform="translate(19,18)"/>
<path d="M0 0 C2.31 0 4.62 0 7 0 C7 7.59 7 15.18 7 23 C4.69 23 2.38 23 0 23 C0 15.41 0 7.82 0 0 Z " fill="#EDF4FA" transform="translate(8,18)"/>
<path d="M0 0 C4.70588235 0.70588235 4.70588235 0.70588235 6 2 C6.04063832 3.66617115 6.042721 5.33388095 6 7 C3.125 7.625 3.125 7.625 0 8 C-0.66 7.34 -1.32 6.68 -2 6 C-1.44444444 1.44444444 -1.44444444 1.44444444 0 0 Z " fill="#EEF4FA" transform="translate(9,7)"/>
</svg>
