<?xml version="1.0" encoding="UTF-8"?>
<svg version="1.1" xmlns="http://www.w3.org/2000/svg" width="48" height="48">
<path d="M0 0 C5.82485779 3.51996782 10.54466582 8.98962934 12.5625 15.5 C13.36764105 23.33608208 13.68710392 31.11922577 8.5625 37.5 C3.67299549 42.63449013 -0.69335104 46.29405121 -7.98828125 46.6953125 C-9.85033203 46.66050781 -9.85033203 46.66050781 -11.75 46.625 C-13.63138672 46.59792969 -13.63138672 46.59792969 -15.55078125 46.5703125 C-16.97970703 46.53550781 -16.97970703 46.53550781 -18.4375 46.5 C-17.98755243 44.70620902 -17.52725857 42.91501072 -17.0625 41.125 C-16.80726562 40.12726562 -16.55203125 39.12953125 -16.2890625 38.1015625 C-15.4375 35.5 -15.4375 35.5 -13.4375 33.5 C-12.4475 34.16 -11.4575 34.82 -10.4375 35.5 C-6.17488563 35.4210627 -4.01414778 34.94850383 -0.625 32.3125 C2.59918766 28.16711586 3.8283317 24.72345893 3.5 19.5 C2.79006214 14.98929724 0.75099797 12.68849797 -2.4375 9.5 C-7.0481484 7.1946758 -13.82122834 7.74337788 -18.6796875 9.1484375 C-21.97040886 10.80085982 -23.52065122 12.63512073 -25.4375 15.75 C-26.66362823 20.34798086 -26.53211059 22.88699825 -25.4375 27.5 C-24.4475 28.16 -23.4575 28.82 -22.4375 29.5 C-22.6025 28.984375 -22.7675 28.46875 -22.9375 27.9375 C-23.94398133 23.03090354 -24.06651654 19.64958196 -21.625 15.1875 C-19.3449753 12.38632679 -17.78467449 10.69636781 -14.1328125 10.1640625 C-9.99864503 10.10123321 -7.13519617 10.15827126 -3.375 12 C-0.77747198 15.35164905 -0.30635051 18.37264826 -0.4375 22.5 C-1.1745424 26.92225439 -1.75969706 28.87061155 -5.0625 31.9375 C-5.84625 32.453125 -6.63 32.96875 -7.4375 33.5 C-9.875 32.75 -9.875 32.75 -12.4375 31.5 C-13.76034898 28.57083439 -13.47809132 27.62177395 -12.4375 24.5 C-12.39795766 22.16700175 -12.39348268 19.83291811 -12.4375 17.5 C-13.7575 17.83 -15.0775 18.16 -16.4375 18.5 C-16.55867188 19.45519531 -16.67984375 20.41039063 -16.8046875 21.39453125 C-17.80903281 29.14344162 -18.93816153 36.82785312 -20.4375 44.5 C-25.88906728 43.45989835 -29.38729709 40.07620249 -32.77734375 35.81640625 C-36.5408302 29.5885728 -36.22742753 22.53529206 -35.4375 15.5 C-33.72625812 8.83685195 -28.989159 4.32516542 -23.4375 0.5 C-16.65568202 -2.91366677 -6.96443471 -3.08620048 0 0 Z " fill="#CB1E26" transform="translate(35.4375,1.5)"/>
</svg>
