<?xml version="1.0" encoding="UTF-8"?>
<svg version="1.1" xmlns="http://www.w3.org/2000/svg" width="49" height="48">
<path d="M0 0 C5.30477618 -0.8885171 10.81005708 -1.8039577 16 0 C20.64459789 3.93134829 23.34072565 9.63031142 26 15 C31.05212126 13.21689838 33.72504924 8.62659961 36.84570312 4.5234375 C40.39806718 0.08422105 40.39806718 0.08422105 43.84765625 -0.3984375 C44.91306641 -0.20121094 44.91306641 -0.20121094 46 0 C44.4563893 3.59345931 42.27381666 6.08188204 39.625 8.9375 C38.07358273 10.61604009 36.53178994 12.30352957 35 14 C34.22398438 14.84691406 33.44796875 15.69382812 32.6484375 16.56640625 C30.80916022 18.78185065 30.80916022 18.78185065 31.02734375 20.96875 C32.31749414 23.66303997 33.87042611 26.0363934 35.5625 28.5 C36.63177734 30.07201172 36.63177734 30.07201172 37.72265625 31.67578125 C38.09535645 32.21928223 38.46805664 32.7627832 38.85205078 33.32275391 C40.7523668 36.09926838 42.62674521 38.89264392 44.5 41.6875 C45.1703125 42.68136719 45.840625 43.67523438 46.53125 44.69921875 C48 47 48 47 48 48 C42.813293 48.66859895 38.1679753 48.95722619 33 48 C29.34176767 44.83915891 27.28406971 41.21493277 25 37 C24.43796875 36.26265625 23.8759375 35.5253125 23.296875 34.765625 C22 33 22 33 22 31 C18.17808442 33.8545989 15.27484865 36.89314482 12.3125 40.625 C8.12582781 45.87417219 8.12582781 45.87417219 6 48 C3.375 48.125 3.375 48.125 1 48 C2.53613553 44.43485124 4.6838452 41.96129644 7.3125 39.125 C8.50939453 37.81015625 8.50939453 37.81015625 9.73046875 36.46875 C11.05860061 35.02403514 12.39207412 33.58413711 13.73828125 32.15625 C15.28577505 30.50665992 15.28577505 30.50665992 17 28 C16.65574302 24.34952219 14.70888499 21.82227408 12.65625 18.8671875 C11.98722656 17.89652344 11.31820313 16.92585938 10.62890625 15.92578125 C9.57509766 14.41564453 9.57509766 14.41564453 8.5 12.875 C7.11364163 10.87304764 5.72817883 8.8704747 4.34375 6.8671875 C3.72693359 5.98144043 3.11011719 5.09569336 2.47460938 4.18310547 C1 2 1 2 0 0 Z M8 4 C10.8680123 9.20841857 14.03401021 14.0475944 17.5 18.875 C20.82028614 23.50729724 24.11541325 28.14429676 27.27734375 32.88671875 C27.80714844 33.66998535 28.33695313 34.45325195 28.8828125 35.26025391 C29.90268418 36.77052243 30.90971749 38.28955752 31.90234375 39.81787109 C33.18331858 41.69529983 34.37815337 43.40760935 36 45 C38.73980338 45.62548635 38.73980338 45.62548635 41 45 C37.82827495 39.19558692 34.1970117 33.83169774 30.375 28.4375 C29.12364414 26.670611 27.87234241 24.90368367 26.62109375 23.13671875 C26.00733887 22.27095215 25.39358398 21.40518555 24.76123047 20.51318359 C23.15529713 18.22160086 21.58741959 15.91015909 20.03515625 13.58203125 C19.59187988 12.92855713 19.14860352 12.27508301 18.69189453 11.60180664 C17.87620631 10.39764253 17.07300753 9.18489001 16.28466797 7.96264648 C15.10045165 6.15561267 15.10045165 6.15561267 13 4 C10.31127082 3.51797053 10.31127082 3.51797053 8 4 Z " fill="#000000" transform="translate(0,0)"/>
</svg>
