<?xml version="1.0" encoding="UTF-8"?>
<svg version="1.1" xmlns="http://www.w3.org/2000/svg" width="69" height="48">
<path d="M0 0 C0.93810013 -0.00960754 1.87620026 -0.01921509 2.84272766 -0.02911377 C3.85006454 -0.03336365 4.85740143 -0.03761353 5.89526367 -0.04199219 C6.93841232 -0.04769226 7.98156097 -0.05339233 9.05632019 -0.05926514 C11.26279692 -0.06870593 13.46928769 -0.07524546 15.67578125 -0.07910156 C19.04020972 -0.08880082 22.40402554 -0.11983087 25.76831055 -0.15136719 C27.9147913 -0.1578983 30.06127642 -0.16314834 32.20776367 -0.16699219 C33.20902786 -0.17933899 34.21029205 -0.19168579 35.24189758 -0.20440674 C41.02659489 -0.18608546 45.15518779 0.34751154 50.25073242 3.16113281 C56.11177864 9.99902006 54.5965492 21.74322442 54.25073242 30.16113281 C53.78750948 35.9117148 53.37234268 40.57218495 50.00073242 45.34863281 C44.44868388 49.00793754 37.72199437 48.3212268 31.28588867 48.32910156 C30.3343541 48.33242996 29.38281952 48.33575836 28.40245056 48.33918762 C26.39623496 48.34423505 24.39001101 48.34659662 22.38378906 48.34643555 C19.32692563 48.34862301 16.27042278 48.36680474 13.21362305 48.38574219 C11.25854615 48.38867643 9.30346755 48.39066102 7.34838867 48.39160156 C6.44089371 48.39878708 5.53339874 48.4059726 4.59840393 48.41337585 C-1.51670473 48.39152507 -7.14472825 48.21734807 -12.12426758 44.28613281 C-16.25455773 38.88498416 -14.93336355 31.3060667 -14.93676758 24.84863281 C-14.94901367 23.63755859 -14.96125977 22.42648438 -14.97387695 21.17871094 C-14.99261778 9.76554481 -14.99261778 9.76554481 -12.74926758 4.16113281 C-9.04672747 0.4585927 -5.05783647 0.04197657 0 0 Z " fill="#FF0000" transform="translate(14.749267578125,-0.1611328125)"/>
<path d="M0 0 C4.05326743 1.62130697 7.55135983 3.33240762 11.3125 5.5 C12.38113281 6.1084375 13.44976562 6.716875 14.55078125 7.34375 C15.76314453 8.16359375 15.76314453 8.16359375 17 9 C17 9.66 17 10.32 17 11 C14.56866946 12.63863397 12.15228465 14.14921334 9.625 15.625 C8.57699219 16.25535156 8.57699219 16.25535156 7.5078125 16.8984375 C2.27140828 20 2.27140828 20 0 20 C0 13.4 0 6.8 0 0 Z " fill="#FFEEEE" transform="translate(27,14)"/>
</svg>
